<svg width="479" height="171" viewBox="0 0 479 171" fill="none" xmlns="http://www.w3.org/2000/svg">
<path d="M209.802 132.047C198.621 132.047 191.684 126.533 190 116.314L196.062 115.104C197.274 122.298 201.854 125.996 209.465 125.996C216.806 125.996 221.925 122.5 221.925 117.524C221.925 113.154 217.951 110.129 208.253 107.305C196.466 103.943 191.414 98.9681 191.414 91.9759C191.414 83.9752 198.015 79 208.589 79C218.894 79 225.091 83.7063 227.179 92.7155L220.915 94.0601C219.568 88.0092 215.527 84.9837 208.455 84.9837C201.854 84.9837 197.746 87.5385 197.746 91.9087C197.746 95.9426 201.181 98.6992 210.812 101.657C223.474 105.49 228.189 110.465 228.189 117.524C228.189 126.332 220.982 132.047 209.802 132.047Z" fill="white"/>
<path d="M250.488 131.576C244.023 131.576 241.396 129.088 241.396 122.768V100.313H235.469V94.4635H241.396V84.3114H247.458V94.4635H254.664V100.313H247.458V121.894C247.458 124.92 248.805 125.525 250.758 125.525H255.001V131.307C253.654 131.441 251.97 131.576 250.488 131.576Z" fill="white"/>
<path d="M279.525 131.576C269.018 131.576 260.936 123.575 260.936 112.751C260.936 101.926 269.018 93.8584 279.525 93.8584C290.032 93.8584 298.115 101.926 298.115 112.751C298.115 123.575 290.032 131.576 279.525 131.576ZM279.525 125.727C286.328 125.727 291.783 120.079 291.783 112.751C291.783 105.422 286.328 99.8421 279.525 99.8421C272.723 99.8421 267.267 105.422 267.267 112.751C267.267 120.079 272.723 125.727 279.525 125.727Z" fill="white"/>
<path d="M305.549 130.769V94.4635H311.61V99.1026C314.574 95.2703 318.144 93.8584 323.734 94.1946V101.12C316.056 100.716 311.61 104.548 311.61 111.675V130.769H305.549Z" fill="white"/>
<path d="M341.495 131.576C334.154 131.576 329.102 127.475 329.102 121.357C329.102 115.843 333.076 112.751 338.262 111.137C345.94 108.717 352.339 107.91 352.339 104.078C352.339 101.456 349.443 99.6404 345.132 99.6404C340.687 99.6404 337.521 101.59 336.241 105.086L330.516 103.204C332.335 97.2873 337.656 93.8584 345.267 93.8584C353.82 93.8584 358.939 98.1613 358.939 106.431V123.374C358.939 125.323 360.623 126.399 362.509 125.592V130.904C361.566 131.374 360.623 131.576 359.613 131.576C356.851 131.576 354.561 129.895 353.686 127.273C350.183 130.097 345.873 131.576 341.495 131.576ZM341.764 125.727C346.008 125.727 350.52 123.71 352.945 120.886V111.675C344.458 116.583 335.231 115.44 335.231 121.02C335.231 124.046 337.993 125.727 341.764 125.727Z" fill="white"/>
<path d="M383.698 131.576C373.325 131.576 367.398 122.634 367.398 112.549C367.398 101.725 374.066 93.8584 383.63 93.8584C390.568 93.8584 395.956 97.9596 398.246 104.75L392.386 106.229C390.702 101.725 387.335 99.8421 383.765 99.8421C377.636 99.8421 373.595 105.49 373.595 112.549C373.595 119.676 377.771 125.592 383.63 125.592C387.874 125.592 390.972 122.365 392.521 117.592L398.448 119.003C396.293 127.408 390.702 131.576 383.698 131.576Z" fill="white"/>
<path d="M406.143 130.702V79.9413H412.272V99.0353C416.044 95.2031 420.422 93.8584 424.53 93.8584C432.208 93.8584 436.923 98.4975 436.923 107.372V130.702H430.861V107.843C430.861 101.994 427.696 99.7749 423.52 99.7749C417.997 99.7749 413.619 103.405 412.272 108.179V130.702H406.143Z" fill="white"/>
<path d="M457.878 131.576C450.537 131.576 445.485 127.475 445.485 121.357C445.485 115.843 449.459 112.751 454.645 111.137C462.323 108.717 468.722 107.91 468.722 104.078C468.722 101.456 465.826 99.6404 461.515 99.6404C457.07 99.6404 453.904 101.59 452.625 105.086L446.9 103.204C448.718 97.2873 454.039 93.8584 461.65 93.8584C470.204 93.8584 475.322 98.1613 475.322 106.431V123.374C475.322 125.323 477.006 126.399 478.892 125.592V130.904C477.949 131.374 477.006 131.576 475.996 131.576C473.235 131.576 470.945 129.895 470.069 127.273C466.567 130.097 462.256 131.576 457.878 131.576ZM458.148 125.727C462.391 125.727 466.903 123.71 469.328 120.886V111.675C460.842 116.583 451.614 115.44 451.614 121.02C451.614 124.046 454.376 125.727 458.148 125.727Z" fill="white"/>
<g clip-path="url(#clip0_22_23)">
<path d="M96.9748 78.2987C100.816 76.9698 103.308 73.1743 103.348 69.1877C103.292 64.5885 100.074 60.6417 95.5531 59.6789C91.6316 58.8434 87.4466 60.6815 85.3541 64.0713C83.2376 67.4928 83.4373 71.9966 85.9531 75.1715C88.5727 78.4817 93.0133 79.6594 96.9748 78.2907V78.2987ZM93.6203 65.0182C95.9365 65.0182 97.8054 66.8881 97.8054 69.1877C97.8054 71.4873 95.9285 73.3573 93.6203 73.3573C91.3122 73.3573 89.4353 71.4873 89.4353 69.1877C89.4353 66.8881 91.3122 65.0182 93.6203 65.0182Z" fill="white"/>
<path d="M69.6283 102.958V94.1176C65.8186 95.7647 62.0089 97.4118 58.1993 99.051C62.0089 100.356 65.8186 101.653 69.6283 102.958Z" fill="white"/>
<path d="M58.2951 74.0257C62.0728 77.0972 65.8505 80.1607 69.6283 83.2321V74.0257H58.2951Z" fill="white"/>
<path d="M40.9639 79.7947C37.1862 77.6383 32.1066 77.9168 28.1852 79.548C27.9216 79.6594 27.658 79.7788 27.4025 79.9061C27.3306 79.9379 27.2587 79.9777 27.1868 80.0175C27.5702 80.0414 27.9695 79.9857 28.3529 79.9936C29.3912 80.0175 30.4374 80.1369 31.4438 80.3835C33.089 80.7893 34.6065 81.601 35.5569 83.0412C36.1879 84.004 36.5632 85.3408 35.9642 86.4071C35.1815 87.8076 33.3206 87.9508 31.899 87.8712C31.9868 87.8633 32.3702 88.3646 32.506 88.4919C32.7695 88.7465 33.0491 88.9773 33.3526 89.1762C34.1512 89.7093 35.0538 90.0515 36.0042 90.1947C38.512 90.5687 41.523 89.6536 43.5356 88.1338C44.8135 87.163 45.5403 85.7626 45.0292 84.1711C44.4302 82.3012 42.6252 80.7257 40.9719 79.7867L40.9639 79.7947Z" fill="white"/>
<path d="M153.952 83.0729C153.689 72.2352 149.432 61.8989 141.988 53.9656C137.555 49.247 132.148 45.6185 126.182 43.2393H129.728C135.096 43.2393 139.784 42.0776 143.673 39.7939C148.793 36.7861 152.523 32.1072 153.665 27.2772C154.679 22.9963 153.026 18.031 149.647 15.2062C147.667 13.5511 145.359 12.7077 142.787 12.7077C141.629 12.7077 140.423 12.8907 139.201 13.2408C139.153 11.7051 138.897 10.2887 138.442 8.95984C136.725 3.99456 132.204 0.859438 126.047 0.342222C125.551 0.302436 125.04 0.278564 124.537 0.278564C118.403 0.278564 113.108 3.22272 109.746 5.6974C107.254 7.52755 104.994 9.62028 102.981 11.9438C102.23 11.0685 101.368 10.3285 100.417 9.73964C98.716 8.69725 96.7114 8.16412 94.4591 8.16412C93.6205 8.16412 92.742 8.23573 91.8315 8.38692C87.303 9.11898 83.086 11.8165 78.9409 16.6305C76.0577 19.9805 73.3742 23.9989 70.7545 28.9164C69.253 31.7412 68.0311 34.3114 67.0247 36.7781C66.4098 38.282 66.7133 40.0405 67.8154 41.3933C67.8793 41.4808 67.9512 41.5604 68.0231 41.6399C67.2324 42.4993 66.7452 43.6451 66.7452 44.9024V67.1745H52.6966C50.6599 67.1745 48.807 68.5272 48.0882 70.5324C47.9365 70.9621 47.8566 71.3997 47.8247 71.8294C47.4732 71.4077 47.1138 70.9939 46.7225 70.5881C44.7098 68.5113 42.4656 66.7289 40.0376 65.3045C35.9005 62.8697 31.2682 61.5806 26.6439 61.5806C24.5673 61.5806 22.5067 61.8432 20.5021 62.3524L20.3423 62.3922C19.6635 62.5434 17.8585 62.9413 17.0917 64.7396C16.6525 65.7661 16.7084 66.8562 17.1876 67.7872C16.0056 68.3124 14.9433 68.9808 14.0169 69.7765C12.8268 70.803 12.0681 71.9806 11.3972 73.031C11.2135 73.3095 11.0378 73.5959 10.8461 73.8744C9.84779 75.3385 8.76958 76.6037 7.65144 77.6382C6.47739 78.7203 5.40717 79.4285 4.37688 79.7866C4.29702 79.8025 4.20118 79.8184 4.10534 79.8423C3.08304 80.0333 1.19018 80.3913 0.34359 82.1658C0.0560684 82.7705 -0.303334 84.0039 0.511312 85.4839C1.03844 86.4467 1.82912 87.1788 2.46007 87.7676C2.58786 87.887 2.70766 87.9984 2.81947 88.1018C3.87372 89.1283 4.95992 90.0354 6.03812 90.7834C8.39421 92.4146 10.7104 93.2501 12.9147 93.2501C12.9786 93.2501 13.0425 93.2501 13.1064 93.2501C12.8668 93.6162 12.6911 94.022 12.5952 94.4676C12.4594 95.0723 12.2119 97.1571 14.5919 98.5416C16.9719 99.9262 19.6874 101.167 22.6585 102.234C26.3643 103.563 29.6229 104.215 32.6259 104.215C32.8815 104.215 33.1291 104.215 33.3847 104.199C36.6912 104.072 40.0616 103.093 43.1205 101.366C44.7418 100.451 46.3311 99.2737 48.0323 97.73C47.8885 98.2074 47.8167 98.7167 47.8406 99.2419C47.9205 101.327 49.3262 103.244 51.243 103.905L66.7532 109.204V150.963C66.7532 152.587 66.7372 154.202 66.7212 155.825C66.6893 159.064 66.6573 162.422 66.7532 165.764V165.859C66.7532 168.533 68.9415 170.713 71.6251 170.713H110.361C110.425 170.713 110.496 170.713 110.56 170.713C111.774 170.681 112.924 170.18 113.811 169.297L152.547 130.705C153.409 129.845 153.912 128.739 153.96 127.561V127.49L153.968 94.8416C153.968 93.6082 153.976 92.3828 153.984 91.1494C154 88.5077 154.024 85.7783 153.952 83.0729ZM69.7003 37.8603C70.7545 35.2662 71.9925 32.7359 73.3103 30.2612C75.5226 26.1075 78.0544 22.0732 81.1373 18.5005C84.0524 15.1187 87.7583 11.9517 92.3107 11.2197C94.5629 10.8536 96.935 10.965 98.9237 12.1825C100.529 13.1692 101.671 14.681 102.398 16.3998C102.494 16.6226 102.574 16.8454 102.661 17.0682C105.073 13.5909 108.076 10.5035 111.471 8.00498C115.536 5.01308 120.68 2.76916 125.831 3.19885C130.2 3.55692 134.249 5.57804 135.742 9.89082C136.621 12.4371 136.437 15.2858 135.862 17.9435C139.52 15.5722 144.129 14.323 147.81 17.4024C150.35 19.527 151.636 23.418 150.877 26.6247C149.815 31.1285 146.117 35.0434 142.228 37.3271C138.426 39.5631 134.105 40.3747 129.744 40.3747H71.6331C71.6331 40.3747 71.6091 40.3747 71.6011 40.3747C71.5213 40.3747 71.4414 40.3588 71.3615 40.3509C70.7945 40.2792 70.3712 40.0087 70.0996 39.6268C69.6843 39.1334 69.4607 38.4571 69.7083 37.8523L69.7003 37.8603ZM47.2975 94.4755C45.6043 96.1465 43.7834 97.6982 41.6988 98.8758C39.1431 100.316 36.212 101.223 33.2728 101.335C29.9903 101.454 26.6918 100.642 23.6249 99.5363C21.0212 98.6053 18.4255 97.4595 16.0375 96.067C15.6621 95.8442 15.2947 95.5736 15.3986 95.0803C15.4784 94.7063 15.8059 94.4914 16.1653 94.4676C17.0279 94.4119 17.9942 94.8018 18.8808 94.8495C19.6874 94.8893 20.4941 94.8495 21.2848 94.6983C22.363 94.4914 23.7207 94.022 24.2319 92.9557C24.7111 91.9452 24.1041 90.7993 23.3453 90.107C20.9254 87.9268 17.2595 89.2636 14.6079 90.123C12.1799 90.9107 9.65611 89.8126 7.6754 88.436C6.66109 87.7279 5.71067 86.9242 4.82414 86.0568C4.2491 85.4919 3.41848 84.8235 3.01914 84.1073C2.28436 82.7785 4.53662 82.7546 5.23945 82.5159C6.87673 81.9589 8.33031 80.9006 9.59221 79.7389C10.9659 78.4737 12.156 77.0255 13.2102 75.4897C14.0568 74.2564 14.7277 72.9434 15.8858 71.9488C17.6987 70.3892 20.0468 69.6253 22.3949 69.3229C22.8342 69.2672 23.2815 69.2195 23.7287 69.1956C23.7686 69.1956 23.8884 69.1797 24.0082 69.1638C23.5211 68.8137 23.1457 68.2885 22.6265 67.9463C21.9157 67.4769 21.149 67.1665 20.3344 66.9596C20.3344 66.9596 20.3184 66.9596 20.3104 66.9596C20.2864 66.9596 20.2705 66.9437 20.2465 66.9437C20.2225 66.9437 20.2066 66.9278 20.1906 66.9199C20.1666 66.9119 20.1507 66.9119 20.1267 66.896C20.1267 66.896 20.1187 66.888 20.1107 66.8801C20.0708 66.8562 20.0388 66.8323 20.0149 66.8005C19.7274 66.5777 19.5676 66.2515 19.7274 65.8775C19.959 65.3364 20.7177 65.2648 21.2209 65.1374C27.155 63.6176 33.3367 64.6918 38.576 67.7872C40.8043 69.1001 42.8569 70.7393 44.6539 72.5933C46.411 74.4155 47.6809 76.5401 49.2623 78.4975C50.3804 79.8821 51.6024 81.1871 52.8802 82.4204C53.4872 83.0093 54.1022 83.5822 54.7332 84.1471C55.1804 84.545 55.6516 84.911 55.9392 85.4521C56.4583 86.4388 56.3065 87.7119 55.5558 88.5474C55.1245 89.0249 54.5415 89.2397 53.9824 89.5341C53.2157 89.932 52.4649 90.3776 51.7222 90.8232C49.997 91.8497 48.7272 93.083 47.2975 94.4755ZM151.093 94.8416V127.267C151.093 127.267 151.093 127.307 151.093 127.323C151.093 127.784 150.933 128.254 150.51 128.675C148.913 130.267 147.323 131.858 145.726 133.442C138.785 140.357 131.845 147.271 124.897 154.194L111.774 167.268C111.351 167.689 110.872 167.857 110.417 167.849C110.401 167.849 110.385 167.849 110.369 167.849H71.6331C70.5549 167.849 69.6364 166.934 69.6364 165.859C69.6364 165.788 69.6364 165.724 69.6364 165.652C69.4926 160.767 69.6364 155.849 69.6364 150.963V107.159C69.3409 107.056 69.0454 106.96 68.7578 106.857C63.231 104.971 57.7122 103.085 52.1854 101.191C50.7398 100.698 49.997 98.295 51.7062 97.555C52.4809 97.2208 53.2636 96.8866 54.0383 96.5444C59.2377 94.3005 64.437 92.0566 69.6364 89.8047V88.3406C69.0374 87.8552 68.4384 87.3698 67.8474 86.8844C62.3365 82.4045 56.8177 77.9246 51.3069 73.4447C49.9172 72.3148 51.1152 70.047 52.7205 70.047H69.6444V44.9103C69.6444 43.8361 70.5628 42.921 71.6411 42.921H109.754C111.008 42.921 112.27 42.9767 113.523 43.0961C123.547 44.043 133.019 48.5865 139.912 55.923C146.836 63.2914 150.853 73.0469 151.101 83.1445C151.197 87.0435 151.117 90.9505 151.117 94.8416H151.093Z" fill="white"/>
<path d="M112.357 129.256V161.053C112.812 160.6 113.276 160.138 113.731 159.685L134.56 138.932L144.272 129.256H112.357Z" fill="white"/>
<path d="M135.215 56.9019C130.719 52.7085 125.24 49.7484 119.37 48.1888C126.486 52.4379 131.07 60.4667 131.07 70.0312C131.07 83.5425 119.481 94.1016 107.318 94.1016C102.765 94.1016 98.4683 93.2582 94.8184 91.1018C92.4703 89.9639 89.5711 90.3061 87.5424 92.1919C86.2326 93.4094 85.5378 95.0406 85.4819 96.6957C85.41 98.7248 86.4323 100.627 88.0217 101.9C88.5328 102.305 89.3235 102.99 90.5135 104.144C91.432 105.027 92.007 106.212 92.3105 107.509C93.6523 113.231 89.4832 118.976 83.589 119.103C80.0908 119.175 76.8642 117.392 75.3946 114.504C74.7637 113.27 74.1647 111.91 73.6296 110.151V163.886H108.372V127.283C108.372 126.209 109.29 125.294 110.369 125.294H147.067C147.067 124.379 147.107 123.464 147.107 122.564V93.4094C147.107 89.4069 147.291 85.3488 147.012 81.3543C146.357 72.0682 142.036 63.2597 135.223 56.9178L135.215 56.9019Z" fill="white"/>
</g>
<defs>
<clipPath id="clip0_22_23">
<rect width="154" height="170.427" fill="white" transform="translate(0 0.286621)"/>
</clipPath>
</defs>
</svg>
